<?xml version="1.0" encoding="UTF-8" standalone="no"?>
<svg
   version="1.1"
   x="0px"
   y="0px"
   viewBox="0 0 160 100"
   xml:space="preserve"
   id="svg3"
   sodipodi:docname="top-page-image.svg"
   width="160"
   height="100"
   inkscape:version="1.3 (0e150ed6c4, 2023-07-21)"
   xmlns:inkscape="http://www.inkscape.org/namespaces/inkscape"
   xmlns:sodipodi="http://sodipodi.sourceforge.net/DTD/sodipodi-0.dtd"
   xmlns="http://www.w3.org/2000/svg"
   xmlns:svg="http://www.w3.org/2000/svg"><defs
     id="defs3" /><sodipodi:namedview
     id="namedview3"
     pagecolor="#dadada"
     bordercolor="#000000"
     borderopacity="0.25"
     inkscape:showpageshadow="2"
     inkscape:pageopacity="0.0"
     inkscape:pagecheckerboard="0"
     inkscape:deskcolor="#d1d1d1"
     inkscape:zoom="4.5623188"
     inkscape:cx="56.550191"
     inkscape:cy="43.727764"
     inkscape:window-width="1718"
     inkscape:window-height="819"
     inkscape:window-x="160"
     inkscape:window-y="211"
     inkscape:window-maximized="0"
     inkscape:current-layer="g2" /><g
     id="g2"><path
       d="m 59.858557,12.940048 c -3.22559,0 -6.27344,1.17041 -8.6582,3.31104 -5.08016,-4.55076 -12.9227,-4.44112 -17.85644,0.50244 -5.06934,5.06934 -5.06934,13.31738 0,18.38672 l 17.32617,17.33594 c 0.14063,0.14063 0.33105,0.21973 0.53027,0.21973 0.19922,0 0.38965,-0.0791 0.53027,-0.21973 l 17.32617,-17.32617 c 0.03613,-0.03613 0.06738,-0.07422 0.09473,-0.11523 8.00758,-8.184 2.20382,-22.09473 -9.29199,-22.09473 0,-10e-6 0,-10e-6 -9.8e-4,-10e-6 z m 8.12793,21.13965 c -0.0332,0.0332 -0.0625,0.06934 -0.08789,0.10742 l -16.69824,16.69824 -16.7959,-16.80566 c -4.48438,-4.48438 -4.48438,-11.78125 9.8e-4,-16.26611 4.49083,-4.50093 11.76217,-4.50199 16.26465,4.9e-4 0.14063,0.14063 0.33105,0.21973 0.53027,0.21973 0.19922,0 0.39063,-0.0791 0.53125,-0.22021 2.1709,-2.17578 5.05762,-3.37353 8.12695,-3.37353 9.8e-4,0 9.8e-4,0 9.8e-4,0 10.26008,-2e-5 15.326,12.4438 8.12695,19.63963 z"
       id="path1" /><path
       d="m 138.62989,51.742614 c -2.9417,-1.323195 -6.20143,-1.506079 -9.25442,-0.532123 -2.76624,-6.234209 -9.96352,-9.35137 -16.49096,-6.866814 -6.70271,2.543642 -10.0862,10.065751 -7.54257,16.768458 l 8.68974,22.917668 c 0.0706,0.185942 0.21178,0.336194 0.39346,0.417917 0.18169,0.08172 0.38781,0.0877 0.57374,0.01713 l 22.90876,-8.693743 c 0.0477,-0.01814 0.0919,-0.04004 0.13363,-0.06624 10.66004,-4.178853 11.07351,-19.246071 0.58948,-23.961859 0,-10e-6 0,-10e-6 -8.9e-4,-4.12e-4 z m -1.2593,22.613319 c -0.0439,0.01666 -0.0854,0.0376 -0.12423,0.06191 L 115.16787,82.796512 106.7442,60.57998 c -2.25013,-5.929272 0.74318,-12.583926 6.67355,-14.834087 5.94194,-2.262573 12.57374,0.719295 14.83295,6.672499 0.0706,0.185942 0.21178,0.336194 0.39346,0.417917 0.18169,0.08172 0.3887,0.08811 0.57483,0.0171 2.87238,-1.093742 5.99637,-1.00189 8.79556,0.257204 8.9e-4,4.02e-4 8.9e-4,4.02e-4 8.9e-4,4.02e-4 9.35708,4.208852 8.87245,17.635591 -0.64485,21.244918 z"
       id="path1-9" /><path
       d="m 15.687657,48.870708 v 21.18652 c 0,1.43262 1.16602,2.59863 2.59863,2.59863 h 7.39648 c 1.43262,0 2.59863,-1.16602 2.59863,-2.59863 v -1.31445 h 1.79297 c 0.61426,0 1.20313,0.10254 1.75293,0.30469 l 16.93945,6.0332 c 0.5166,0.18066 1.05273,0.26953 1.58496,0.26953 0.82031,0 1.63281,-0.21094 2.35352,-0.62598 l 23.50782,-13.39257 c 1.76863,-0.83168 2.61146,-3.00212 1.74024,-4.81543 -0.86693,-1.86451 -3.07506,-2.55436 -4.71289,-1.7793 l -14.20508,4.4466 c 0.09692,-0.29285 0.16943,-0.59302 0.18652,-0.90167 0.13935,-2.11601 -1.67333,-3.84863 -3.78809,-3.84863 h -9.13672 l -7.93554,-2.9043 c -1.9502,-0.71387 -3.99512,-1.07617 -6.07715,-1.07617 h -4.00293 v -1.58203 c 0,-1.43262 -1.16602,-2.59863 -2.59863,-2.59863 h -7.39648 c -1.43262,-10e-6 -2.59864,1.16601 -2.59864,2.59862 z m 16.59668,3.08204 c 1.90527,0 3.77734,0.33105 5.56152,0.98438 l 8.06054,2.9502 c 0.08301,0.03027 0.16992,0.0459 0.25781,0.0459 h 9.26953 c 1.25898,0 2.37255,1.01057 2.29102,2.25781 -0.0646,1.14946 -1.04562,1.98145 -2.12109,1.98145 h -9.95996 c -2.61426,0 -4.74023,2.12598 -4.74023,4.74023 v 0.63965 c 0,0.41406 0.33594,0.75 0.75,0.75 0.41406,0 0.75,-0.33594 0.75,-0.75 v -0.63965 c 0,-1.78711 1.45313,-3.24023 3.24023,-3.24023 h 9.95996 c 0.67525,0 -0.63856,0.3808 18.17676,-5.54004 1.05859,-0.49121 2.32227,-0.03809 2.81739,1.02441 0.49698,1.03673 0.07444,2.29808 -1.0752,2.84473 l -23.5625,13.4209 c -0.81445,0.4668 -1.7998,0.55664 -2.69531,0.24316 l -16.15429,-5.74805 -0.76758,-0.2793 c -0.71387,-0.2627 -1.47656,-0.39551 -2.26855,-0.39551 h -1.79297 v -15.29004 z m -5.50293,-3.08204 v 21.18652 c 0,0.60547 -0.49316,1.09863 -1.09863,1.09863 h -7.39648 c -0.60547,0 -1.09863,-0.49316 -1.09863,-1.09863 v -21.18652 c 0,-0.60547 0.49316,-1.09863 1.09863,-1.09863 h 7.39648 c 0.60547,0 1.09863,0.49317 1.09863,1.09863 z"
       id="path2" /></g></svg>
